<svg width="1002" height="359" viewBox="0 0 1002 359" fill="none" xmlns="http://www.w3.org/2000/svg">
<path d="M906.006 358.398H879.395C877.767 358.398 876.953 357.747 876.953 356.445V300.049C876.953 298.747 877.767 298.096 879.395 298.096H906.006C915.934 297.119 924.316 292.806 931.152 285.156C937.988 277.344 941.406 268.311 941.406 258.057V99.6094C941.406 88.8672 938.07 79.6712 931.396 72.0215C924.723 64.3717 916.26 60.5469 906.006 60.5469H878.418C876.79 60.5469 875.977 59.8958 875.977 58.5938V1.95312C875.977 0.651042 876.79 0 878.418 0H906.494C923.91 0.651042 939.779 5.53385 954.102 14.6484C968.587 23.9258 979.98 35.9701 988.281 50.7812C996.745 65.5924 1000.98 81.8685 1000.98 99.6094L1001.46 258.057C1001.46 275.96 997.152 292.399 988.525 307.373C979.899 322.51 968.343 334.635 953.857 343.75C939.535 352.865 923.584 357.747 906.006 358.398Z" fill="#005463"/>
<path d="M834.473 358.398H807.373C790.283 357.747 774.495 352.865 760.01 343.75C745.687 334.635 734.131 322.591 725.342 307.617C716.715 292.48 712.402 275.96 712.402 258.057L712.891 99.6094C712.891 81.8685 717.122 65.5924 725.586 50.7812C734.049 35.9701 745.443 24.0072 759.766 14.8926C774.251 5.61523 790.12 0.651042 807.373 0H835.449C837.077 0 837.891 0.651042 837.891 1.95312V58.5938C837.891 59.8958 837.077 60.5469 835.449 60.5469H806.885C797.282 60.5469 789.144 64.3717 782.471 72.0215C775.798 79.6712 772.461 88.8672 772.461 99.6094V258.057C772.461 268.311 775.879 277.344 782.715 285.156C789.551 292.806 797.607 297.119 806.885 298.096H833.984C835.612 298.096 836.426 298.747 836.426 300.049L836.914 356.445C836.914 357.747 836.1 358.398 834.473 358.398Z" fill="#005463"/>
<path d="M536.377 353.516H486.328C483.724 353.516 482.422 352.376 482.422 350.098L481.934 9.52148C481.934 6.91732 483.236 5.61523 485.84 5.61523H531.006L615.479 202.637L613.037 9.52148C613.037 6.91732 614.502 5.61523 617.432 5.61523H666.992C668.945 5.61523 669.922 6.91732 669.922 9.52148L670.41 350.586C670.41 352.539 669.596 353.516 667.969 353.516H624.023L537.354 169.434L541.016 349.609C541.016 352.214 539.469 353.516 536.377 353.516Z" fill="#1A1817"/>
<path d="M251.709 351.074L313.721 7.56836C314.046 6.26628 314.86 5.61523 316.162 5.61523H388.672C389.974 5.61523 390.788 6.26628 391.113 7.56836L450.684 351.074C450.846 352.702 450.195 353.516 448.73 353.516H393.311C391.683 353.516 390.788 352.702 390.625 351.074L385.254 314.453H317.139L311.768 351.074C311.605 352.702 310.791 353.516 309.326 353.516H253.662C252.36 353.516 251.709 352.702 251.709 351.074ZM349.609 120.605L327.148 260.986H375.244L354.736 120.605L351.807 102.051L349.609 120.605Z" fill="#1A1817"/>
<path d="M58.5938 353.516H1.95312C0.651042 353.516 0 352.702 0 351.074L0.976562 7.56836C0.976562 6.26628 1.6276 5.61523 2.92969 5.61523H63.9648C65.2669 5.61523 66.4062 6.26628 67.3828 7.56836L113.037 73.4863L158.447 7.56836C159.424 6.26628 160.645 5.61523 162.109 5.61523H223.389C224.854 5.61523 225.586 6.26628 225.586 7.56836L226.562 351.074C226.562 352.702 225.911 353.516 224.609 353.516H167.969C166.667 353.516 166.016 352.702 166.016 351.074L165.527 95.9473L113.037 172.119L61.0352 95.9473L60.5469 351.074C60.5469 352.702 59.8958 353.516 58.5938 353.516Z" fill="#1A1817"/>
</svg>
